<svg id="Layer_1" xmlns="http://www.w3.org/2000/svg" viewBox="0 0 40 25"><style>.st0{display:none;} .st1{display:inline;fill:none;stroke:#616162;stroke-miterlimit:10;}</style><path d="M11.6 0c1.2 0 2.3.1 3.2.3 1 .2 1.8.6 2.5 1 .7.5 1.3 1.1 1.6 1.8.3.8.6 1.8.6 2.9 0 1.3-.3 2.3-.8 3.1-.6.8-1.4 1.5-2.5 2 1.5.4 2.7 1.2 3.3 2.3.8 1.1 1.1 2.4 1.1 3.9 0 1.3-.2 2.3-.8 3.2-.5.9-1.2 1.7-1.9 2.3-.8.6-1.8 1-2.7 1.3-1 .2-2.1.4-3.2.4H.1V0h11.5zm-.7 9.9c.9 0 1.7-.3 2.4-.7.6-.4.9-1.2.9-2.2 0-.6-.1-1.1-.3-1.4-.2-.3-.5-.7-.8-.8-.3-.3-.8-.3-1.2-.4-.5-.1-.9-.2-1.4-.2H5.4v5.7h5.5zm.4 10.4c.5 0 1-.1 1.5-.2s.9-.3 1.3-.5.7-.6.9-1c.2-.4.3-.9.3-1.6 0-1.3-.3-2.2-1.1-2.7-.7-.5-1.7-.8-2.8-.8H5.5v6.8h5.8zm17-.1c.8.8 1.7 1.1 3.2 1.1 1 0 1.8-.2 2.6-.8.7-.5 1.2-1 1.3-1.6h4.3c-.7 2.2-1.7 3.7-3.2 4.6-1.5 1-3.2 1.5-5.2 1.5-1.4 0-2.7-.2-3.8-.7-1.2-.4-2.1-1.1-2.8-1.9-.7-.8-1.4-1.8-1.8-3-.4-1.2-.7-2.4-.7-3.8s.3-2.6.7-3.8c.4-1.2 1.1-2.2 1.8-3 .8-.8 1.8-1.5 2.9-2 1.1-.5 2.3-.8 3.7-.8 1.5 0 2.8.3 3.9.9 1.1.6 2.1 1.3 2.8 2.3.8 1 1.3 2.1 1.6 3.3.3 1.3.4 2.6.3 3.9H27.1c0 1.8.5 3.2 1.2 3.8zm5.6-9.3c-.6-.7-1.6-1-2.8-1-.8 0-1.4.2-1.9.4-.5.3-.9.6-1.3 1-.3.4-.5.8-.7 1.3l-.3 1.2H35c-.1-1.3-.5-2.2-1.1-2.9zm-7.8-9.2H36v2.4h-9.9V1.7z" id="Layer_1_1_"/><path class="st0 st1" d="M1159.6-198.1h311.5v151h-311.5v-151zM442.3-35.9h259v146h-259v-146z" id="Layer_3"/></svg>