<svg id="VK_Logo" xmlns="http://www.w3.org/2000/svg" viewBox="0 0 41 24"><style>.st0{fill:#DEDEDE;}</style><path id="Logo" class="st0" d="M39.8 1.6c.3-1 0-1.6-1.4-1.6H34c-1.1 0-1.6.6-1.9 1.3 0 0-2.2 5.5-5.4 9-1 1-1.5 1.4-2.1 1.4-.3 0-.7-.3-.7-1.3V1.6c0-1.1-.3-1.6-1.3-1.6h-7c-.7 0-1.1.6-1.1 1 0 1 1.6 1.4 1.8 4.3v6.5c0 1.4-.2 1.7-.8 1.7-1.5 0-5.1-5.5-7.3-11.8C7.8.5 7.4 0 6.3 0H1.8C.6 0 .3.6.3 1.3c0 1.1 1.5 7 7 14.6C11 21.1 16.1 24 20.7 24c2.8 0 3.1-.6 3.1-1.7v-4c0-1.3.2-1.5 1.2-1.5.6 0 1.8.3 4.4 2.9 3 3 3.5 4.3 5.2 4.3H39c1.3 0 1.9-.6 1.5-1.8-.4-1.2-1.8-3-3.8-5.2-1-1.2-2.6-2.6-3-3.2-.6-.9-.5-1.2 0-1.9.2-.1 5.5-7.7 6.1-10.3z"/></svg>